<?xml version="1.0" standalone="no"?>
<!DOCTYPE svg PUBLIC "-//W3C//DTD SVG 20010904//EN"
 "http://www.w3.org/TR/2001/REC-SVG-20010904/DTD/svg10.dtd">
<svg version="1.0" xmlns="http://www.w3.org/2000/svg"
 width="512.000000pt" height="512.000000pt" viewBox="0 0 512.000000 512.000000"
 preserveAspectRatio="xMidYMid meet">
<metadata>
Created by potrace 1.11, written by Peter Selinger 2001-2013
</metadata>
<g transform="translate(0.000000,512.000000) scale(0.100000,-0.100000)"
fill="#000000" stroke="none">
<path d="M2345 5094 c-55 -7 -120 -21 -145 -30 -65 -24 -142 -78 -191 -132
-43 -48 -114 -185 -104 -202 3 -5 1 -11 -4 -14 -4 -3 -8 -53 -8 -110 1 -58 4
-103 8 -100 4 2 10 -8 14 -24 13 -53 57 -131 97 -172 33 -34 39 -44 27 -52
-10 -7 -8 -8 9 -3 15 4 24 1 28 -9 3 -9 10 -13 15 -10 5 3 12 -2 15 -10 3 -9
10 -14 14 -11 5 3 16 -2 24 -11 9 -8 16 -13 16 -9 0 3 13 -1 28 -9 15 -8 48
-17 72 -21 25 -4 50 -7 55 -8 6 -1 13 -6 17 -12 5 -6 8 -5 8 4 0 11 3 11 17 0
9 -8 14 -9 11 -4 -3 6 6 11 20 12 15 0 74 4 131 7 95 6 103 5 97 -11 -6 -17
-5 -17 7 -1 11 14 16 15 27 5 10 -10 11 -9 5 2 -6 10 -4 12 6 5 13 -8 22 -10
70 -13 11 0 18 -4 16 -8 -3 -5 8 -8 23 -9 41 -2 141 -44 133 -57 -3 -5 -1 -7
5 -3 12 7 62 -13 62 -26 0 -5 -5 -6 -12 -2 -7 5 -8 3 -3 -5 5 -9 10 -10 18 -2
7 7 16 4 28 -10 10 -11 21 -21 26 -22 4 -1 7 -6 5 -10 -1 -5 2 -6 7 -2 21 12
200 -194 202 -232 0 -5 7 -16 16 -25 8 -9 16 -28 17 -41 0 -14 4 -24 7 -22 3
2 11 -12 18 -31 10 -28 10 -38 0 -50 -10 -12 -9 -13 6 -7 14 5 17 3 12 -10 -3
-8 -1 -17 6 -20 19 -6 15 -288 -5 -357 -46 -159 -101 -255 -207 -361 -89 -89
-188 -150 -309 -192 -77 -27 -102 -30 -222 -32 -107 -2 -151 1 -210 16 -181
46 -333 152 -453 313 -20 27 -34 52 -31 57 3 5 1 9 -4 9 -11 0 -75 140 -68
148 3 3 1 11 -5 18 -6 8 -9 20 -6 28 3 8 1 16 -5 18 -6 2 -11 34 -12 76 0 39
-3 72 -6 72 -4 0 -6 11 -6 25 0 14 2 25 6 25 10 0 3 215 -8 243 -7 15 -9 27
-6 27 14 0 -73 143 -112 183 -51 53 -137 106 -204 127 -105 32 -251 16 -359
-40 -78 -39 -195 -167 -208 -225 -1 -5 -9 -28 -17 -50 -25 -70 -42 -349 -26
-436 4 -21 3 -45 -3 -54 -7 -13 -6 -16 2 -11 7 5 11 -1 10 -16 0 -13 2 -36 5
-53 3 -16 8 -47 11 -68 3 -21 9 -46 14 -56 6 -10 11 -28 13 -42 2 -13 7 -30
11 -36 5 -7 6 -13 3 -13 -3 0 6 -32 20 -70 14 -39 22 -75 18 -82 -4 -6 -3 -8
3 -5 5 3 20 -20 33 -51 13 -31 35 -75 48 -97 14 -22 25 -46 25 -52 0 -7 4 -13
7 -13 4 0 13 -13 20 -30 7 -16 16 -30 21 -30 5 0 9 -7 9 -15 0 -8 5 -15 10
-15 6 0 10 -6 10 -12 1 -7 14 -29 30 -48 17 -19 30 -40 30 -46 0 -7 7 -15 16
-18 9 -3 14 -13 10 -21 -3 -8 0 -17 6 -21 7 -4 8 -3 4 4 -4 7 -3 12 1 12 10 0
38 -42 35 -53 -1 -4 1 -6 6 -5 4 2 35 -24 68 -57 33 -33 85 -80 115 -105 29
-25 55 -48 57 -52 2 -5 10 -8 18 -8 9 0 12 -4 9 -10 -3 -5 3 -10 13 -10 22 0
45 -23 34 -34 -4 -4 -2 -7 3 -5 16 4 67 -20 61 -29 -2 -4 5 -9 16 -9 12 -1 24
-6 27 -10 3 -5 39 -25 78 -44 40 -20 70 -39 67 -42 -4 -4 3 -5 15 -2 11 2 21
-1 21 -6 0 -6 5 -7 10 -4 6 3 10 1 10 -4 0 -6 3 -10 8 -9 13 5 91 -25 87 -33
-3 -4 5 -5 17 -1 14 3 19 1 14 -6 -5 -8 -1 -10 9 -6 10 4 22 -1 31 -15 8 -11
20 -21 26 -21 7 0 3 7 -8 15 -16 12 -17 14 -2 15 9 0 23 -7 31 -15 9 -8 17
-11 19 -7 2 5 18 5 36 0 21 -6 32 -15 33 -28 2 -28 3 -33 12 -47 5 -7 6 -13 3
-13 -3 0 1 -21 9 -48 7 -26 16 -60 19 -77 2 -16 9 -43 13 -60 5 -16 9 -44 9
-62 -1 -17 2 -29 5 -27 5 3 26 -87 33 -141 2 -11 8 -38 14 -60 15 -51 26 -113
26 -147 1 -14 4 -24 9 -21 4 2 7 -4 8 -14 0 -10 2 -27 5 -38 2 -11 6 -31 9
-45 2 -14 6 -34 9 -45 14 -55 58 -264 61 -290 1 -16 6 -37 9 -46 4 -9 8 -27
10 -40 2 -13 6 -31 10 -39 3 -8 7 -31 8 -50 2 -19 6 -37 10 -40 4 -3 8 -21 10
-39 1 -18 6 -35 10 -37 5 -3 6 -9 4 -13 -3 -4 0 -25 5 -47 5 -21 12 -51 15
-66 3 -15 11 -47 18 -70 l13 -43 18 83 c16 73 20 81 34 70 14 -11 14 -11 3 4
-14 17 -7 108 7 108 4 0 7 10 6 23 -1 12 2 36 7 52 4 17 10 41 13 55 2 14 9
48 15 75 6 28 13 65 16 82 4 18 10 30 14 28 5 -3 6 3 4 12 -3 10 2 47 11 83
18 71 22 93 24 128 1 15 5 21 13 16 7 -4 8 -3 4 4 -8 14 24 182 35 182 4 0 5
9 2 19 -3 11 2 45 11 75 9 31 19 75 22 99 4 23 10 44 15 45 5 2 7 8 4 13 -3 5
-1 26 4 46 10 38 17 73 27 128 3 17 11 36 17 44 7 9 8 12 1 8 -13 -8 36 196
50 205 6 4 14 2 18 -5 6 -9 8 -9 8 0 0 6 26 17 58 23 31 7 83 23 115 35 31 13
54 19 50 12 -4 -6 6 -2 21 11 16 12 35 22 43 22 7 0 25 7 38 16 13 9 29 13 35
9 5 -3 10 1 10 10 0 11 5 15 15 11 8 -3 19 2 23 11 6 10 17 14 30 11 14 -4 19
-2 16 7 -5 12 31 32 49 27 4 -1 7 2 7 7 0 14 80 62 92 55 6 -4 8 -3 5 3 -9 14
19 37 33 28 6 -4 9 -3 8 2 -4 13 68 74 77 65 5 -4 6 -2 3 3 -3 6 0 16 8 23 8
7 14 9 14 5 0 -4 5 0 11 10 9 15 13 16 27 5 15 -11 15 -11 5 3 -11 13 -3 25
52 76 35 34 61 64 58 67 -4 3 -2 6 3 6 6 0 15 -5 21 -11 8 -8 13 -8 18 0 4 7
1 10 -7 9 -23 -5 -14 19 23 61 20 22 34 42 31 45 -2 3 3 8 12 12 9 3 14 10 11
14 -3 4 3 14 12 21 15 12 16 12 10 -4 -4 -11 -3 -16 4 -12 6 4 8 14 4 23 -7
18 42 95 55 87 5 -3 8 0 5 7 -6 15 71 174 77 161 3 -4 3 -2 1 5 -1 7 6 32 16
55 16 36 38 96 48 132 1 6 10 35 18 65 9 30 18 66 20 80 6 33 13 65 15 65 1 0
3 16 4 35 2 19 7 60 11 90 10 71 10 256 0 345 -5 39 -9 86 -9 107 -1 20 -4 34
-8 31 -5 -2 -9 7 -9 21 -1 14 -2 29 -3 34 -87 384 -280 706 -571 950 -197 165
-417 281 -660 347 -93 25 -105 28 -215 46 -102 16 -343 18 -455 3z"/>
<path d="M2177 4155 c-4 -8 -3 -16 1 -19 4 -3 9 4 9 15 2 23 -3 25 -10 4z"/>
<path d="M2213 4145 c0 -8 4 -12 9 -9 5 3 6 10 3 15 -9 13 -12 11 -12 -6z"/>
<path d="M2475 4151 c-3 -5 -2 -12 3 -15 5 -3 9 1 9 9 0 17 -3 19 -12 6z"/>
<path d="M2513 4145 c0 -8 4 -12 9 -9 5 3 6 10 3 15 -9 13 -12 11 -12 -6z"/>
<path d="M2616 4113 c-6 -14 -5 -15 5 -6 7 7 10 15 7 18 -3 3 -9 -2 -12 -12z"/>
<path d="M2295 4100 c-3 -5 -1 -10 4 -10 6 0 11 5 11 10 0 6 -2 10 -4 10 -3 0
-8 -4 -11 -10z"/>
<path d="M2815 4060 c-3 -5 -1 -10 4 -10 6 0 11 5 11 10 0 6 -2 10 -4 10 -3 0
-8 -4 -11 -10z"/>
<path d="M2720 4040 c-9 -6 -10 -10 -3 -10 6 0 15 5 18 10 8 12 4 12 -15 0z"/>
<path d="M2956 3993 c-6 -14 -5 -15 5 -6 7 7 10 15 7 18 -3 3 -9 -2 -12 -12z"/>
<path d="M3076 3938 c3 -5 10 -6 15 -3 13 9 11 12 -6 12 -8 0 -12 -4 -9 -9z"/>
<path d="M3096 3898 c3 -5 10 -6 15 -3 13 9 11 12 -6 12 -8 0 -12 -4 -9 -9z"/>
<path d="M3134 3876 c1 -8 5 -18 8 -22 4 -3 5 1 4 10 -1 8 -5 18 -8 22 -4 3
-5 -1 -4 -10z"/>
<path d="M3230 3706 c0 -2 7 -7 16 -10 8 -3 12 -2 9 4 -6 10 -25 14 -25 6z"/>
<path d="M4190 2766 c0 -2 7 -7 16 -10 8 -3 12 -2 9 4 -6 10 -25 14 -25 6z"/>
<path d="M4090 2580 c0 -5 5 -10 11 -10 5 0 7 5 4 10 -3 6 -8 10 -11 10 -2 0
-4 -4 -4 -10z"/>
<path d="M1136 2382 c-3 -5 1 -9 9 -9 8 0 12 4 9 9 -3 4 -7 8 -9 8 -2 0 -6 -4
-9 -8z"/>
<path d="M3777 2155 c-4 -8 -3 -16 1 -19 4 -3 9 4 9 15 2 23 -3 25 -10 4z"/>
<path d="M3646 2018 c3 -5 10 -6 15 -3 13 9 11 12 -6 12 -8 0 -12 -4 -9 -9z"/>
<path d="M3555 1920 c3 -5 8 -10 11 -10 2 0 4 5 4 10 0 6 -5 10 -11 10 -5 0
-7 -4 -4 -10z"/>
<path d="M3434 1880 c0 -13 4 -16 10 -10 7 7 7 13 0 20 -6 6 -10 3 -10 -10z"/>
<path d="M1599 1873 c-13 -16 -12 -17 4 -4 9 7 17 15 17 17 0 8 -8 3 -21 -13z"/>
<path d="M3470 1879 c0 -5 5 -7 10 -4 6 3 10 8 10 11 0 2 -4 4 -10 4 -5 0 -10
-5 -10 -11z"/>
<path d="M3293 1785 c0 -8 4 -12 9 -9 5 3 6 10 3 15 -9 13 -12 11 -12 -6z"/>
<path d="M1930 1776 c0 -2 8 -10 18 -17 15 -13 16 -12 3 4 -13 16 -21 21 -21
13z"/>
<path d="M1955 1731 c-3 -5 -2 -12 3 -15 5 -3 9 1 9 9 0 17 -3 19 -12 6z"/>
<path d="M1915 1720 c3 -5 8 -10 11 -10 2 0 4 5 4 10 0 6 -5 10 -11 10 -5 0
-7 -4 -4 -10z"/>
<path d="M1986 1718 c3 -5 10 -6 15 -3 13 9 11 12 -6 12 -8 0 -12 -4 -9 -9z"/>
<path d="M2934 1616 c1 -8 5 -18 8 -22 4 -3 5 1 4 10 -1 8 -5 18 -8 22 -4 3
-5 -1 -4 -10z"/>
<path d="M2155 1611 c-3 -5 -2 -12 3 -15 5 -3 9 1 9 9 0 17 -3 19 -12 6z"/>
<path d="M2369 723 c-13 -16 -12 -17 4 -4 9 7 17 15 17 17 0 8 -8 3 -21 -13z"/>
</g>
</svg>
